<?xml version="1.0" encoding="UTF-8" standalone="no"?>
<!-- Creator: Leonardo Traina -->

<svg
   xmlns:dc="http://purl.org/dc/elements/1.1/"
   xmlns:cc="http://creativecommons.org/ns#"
   xmlns:rdf="http://www.w3.org/1999/02/22-rdf-syntax-ns#"
   xmlns:svg="http://www.w3.org/2000/svg"
   xmlns="http://www.w3.org/2000/svg"
   xmlns:sodipodi="http://sodipodi.sourceforge.net/DTD/sodipodi-0.dtd"
   xmlns:inkscape="http://www.inkscape.org/namespaces/inkscape"
   xml:space="preserve"
   width="600px"
   height="222px"
   style="shape-rendering:geometricPrecision; text-rendering:geometricPrecision; image-rendering:optimizeQuality; fill-rule:evenodd; clip-rule:evenodd"
   viewBox="0 0 600 222"
   id="svg2"
   version="1.1"
   inkscape:version="0.48.4 r9939"
   sodipodi:docname="logo.svg"><metadata
   id="metadata18"><rdf:RDF><cc:Work
       rdf:about=""><dc:format>image/svg+xml</dc:format><dc:type
         rdf:resource="http://purl.org/dc/dcmitype/StillImage" /><dc:title></dc:title></cc:Work></rdf:RDF></metadata><sodipodi:namedview
   pagecolor="#ffffff"
   bordercolor="#666666"
   borderopacity="1"
   objecttolerance="10"
   gridtolerance="10"
   guidetolerance="10"
   inkscape:pageopacity="0"
   inkscape:pageshadow="2"
   inkscape:window-width="1280"
   inkscape:window-height="958"
   id="namedview16"
   showgrid="false"
   inkscape:zoom="0.62666667"
   inkscape:cx="300"
   inkscape:cy="174.82979"
   inkscape:window-x="-8"
   inkscape:window-y="-8"
   inkscape:window-maximized="1"
   inkscape:current-layer="Capa_x0020_1" />
 <defs
   id="defs4">
  <style
   type="text/css"
   id="style6">
   
    .fil0 {fill:#1C1B17}
    .fil1 {fill:#0074BA}
    .fil2 {fill:#2B2A29;fill-rule:nonzero}
   
  </style>
 
   
   
  
    
    
   </defs>
 <g
   id="Capa_x0020_1">
  <metadata
   id="CorelCorpID_0Corel-Layer" />
  <path
   id="_174526296"
   class="fil0"
   d="m 390.544,115.847 46.5213,-0.29409 c -68.5618,-45.705104 -123.411,-46.792904 -179.019,-14.1319 48.489,-14.139004 94.2248,-16.213004 132.497,14.426 z M 146.455,9.849 c 8.45551,0 15.3106,6.85512 15.3106,15.3106 0,8.45433 -6.85512,15.3094 -15.3106,15.3094 -8.45551,0 -15.3106,-6.85512 -15.3106,-15.3094 0,-8.45551 6.85512,-15.3106 15.3106,-15.3106 z m -30.6307,155.469 51.2315,0 14.7992,-103.644 70.2969,-22.3772 -124.253,12.9555 -12.0744,113.066 z"
   inkscape:connector-curvature="0"
   style="fill:#1c1b17" /><path
   id="_174527544"
   class="fil1"
   d="m 408.73,-0.164173 c 5.40709,0 9.79016,4.38307 9.79016,9.79016 0,5.40709 -4.38307,9.79016 -9.79016,9.79016 -5.40591,0 -9.79016,-4.38307 -9.79016,-9.79016 0,-5.40709 4.38425,-9.79016 9.79016,-9.79016 z m -218.698,90.6921 -10.3063,70.960603 c 38.589,-62.610203 96.5598,-88.932303 165.769,-94.221303 -54.3591,-2.90669 -106.996,1.42677 -155.463,23.2606 z m 172.832,-58.5933 71.8441,-8.53937 17.0776,86.860603 -40.9287,-22.378303 -6.77126,-49.7598 -41.2217,-6.18307 z"
   inkscape:connector-curvature="0"
   style="fill:#0074ba" /><path
   style="fill:#2b2a29;fill-rule:nonzero"
   inkscape:connector-curvature="0"
   d="m 338.287,187.488 0,4.95354 -18.1961,0 -2.73543,1.49528 0,6.91772 2.73543,1.49409 36.3909,0 0,4.95472 -36.3909,0 -2.73543,1.49409 0,6.9189 2.73543,1.49409 36.3909,0 0,4.95354 -38.3161,0 -6.38858,-4.95354 c 0,-9.97205 0,-14.7957 0,-24.7689 l 6.38858,-4.95354 20.1213,0 z m 212.793,30.7063 -5.10827,2.63858 -8.72835,-4.54843 c -5.1378,3.48543 -11.4839,5.23228 -19.0193,5.23228 -2.74134,0 -5.30197,-0.24095 -7.69961,-0.72992 -2.39882,-0.48071 -4.48228,-1.1563 -6.25512,-2.02559 -1.78701,-0.86221 -3.18898,-1.88622 -4.21535,-3.0815 -1.04291,-1.18819 -1.54843,-2.46732 -1.54843,-3.84921 0,-3.95906 3.84213,-7.13976 11.5122,-9.55394 -4.9748,-2.74016 -7.46102,-5.05276 -7.46102,-6.93071 0,-1.0311 0.37087,-1.9937 1.10079,-2.87835 0.71575,-0.88583 1.74331,-1.64528 3.05551,-2.28189 1.29449,-0.63662 2.84409,-1.14213 4.61457,-1.50591 1.77283,-0.35669 3.70866,-0.54331 5.80866,-0.54331 2.08701,0 4.05118,0.18662 5.8689,0.54331 1.81772,0.36378 3.38031,0.87756 4.70669,1.52953 1.32638,0.65079 2.38346,1.41142 3.17126,2.28071 0.77598,0.86929 1.17638,1.8248 1.17638,2.85591 0,0.72992 -0.26575,1.43622 -0.80197,2.13425 -0.55039,0.69921 -1.2815,1.3748 -2.23346,2.03386 -0.94016,0.65905 -2.08701,1.27205 -3.44055,1.84724 -1.35709,0.56575 -2.84528,1.07126 -4.48465,1.51299 l 15.1476,7.81535 c 1.74213,-1.75394 2.62087,-4.33819 2.62087,-7.75276 l 6.62835,0 c 0,4.08189 -1.40079,7.46575 -4.18583,10.1669 l 9.77008,5.09055 z m -26.5264,-22.8484 c 0,-1.17165 -0.69921,-2.06457 -2.1,-2.69291 -1.39843,-0.62835 -3.23031,-0.94606 -5.49331,-0.94606 -4.64764,0 -6.9874,1.21063 -6.9874,3.63898 0,0.41929 0.0909,0.7996 0.26811,1.13386 0.17835,0.33307 0.51968,0.69803 1.02874,1.0937 0.50669,0.39685 1.19173,0.83031 2.07047,1.32047 0.87638,0.48071 2.02323,1.07008 3.43937,1.74567 5.18386,-1.14921 7.77402,-2.9185 7.77402,-5.2937 z m 7.59685,18.4169 -17.5441,-9.14291 c -1.22244,0.42756 -2.36929,0.90827 -3.42638,1.45866 -1.05709,0.54449 -1.98071,1.12677 -2.75433,1.73976 -0.76063,0.61299 -1.37126,1.24843 -1.83307,1.90866 -0.44646,0.66024 -0.66969,1.30394 -0.66969,1.94055 0,0.91653 0.31182,1.74567 0.95197,2.5063 0.64016,0.75354 1.55079,1.41378 2.71181,1.96417 1.1622,0.55039 2.54528,0.98504 4.13976,1.29567 1.60984,0.31063 3.38031,0.46535 5.33268,0.46535 5.09291,0 9.44291,-1.38189 13.0913,-4.13622 z m -38.0232,8.40118 -6.57756,-0.0354 -6.10157,-7.93583 -30.8669,0 -6.06378,7.93583 -6.51378,0 0,-0.0933 26.4272,-34.5461 3.53386,0.006 26.1626,34.6689 z m -14.8016,-11.922 -13.2969,-17.7378 -13.2319,17.7378 26.5287,0 z m -314.203,11.922 -6.57756,-0.0354 -6.10157,-7.93583 -30.8669,0 -6.06378,7.93583 -6.51378,0 0,-0.0933 26.4272,-34.5461 3.53386,0.006 26.1626,34.6689 z m -14.8016,-11.922 -13.2969,-17.7378 -13.2319,17.7378 26.5287,0 z m 105.971,11.922 -4.97835,0 0,-34.676 4.97835,0 0,34.676 z m -47.987,0 -28.0134,-25.2874 0,23.1969 -5.09173,0 0,-32.5854 3.44173,0 29.3799,27.2492 0.64843,0 29.3799,-27.2492 3.44173,0 0,32.5854 -5.09174,0 0,-23.1969 -28.01339,25.2874 -0.0815,0 z m 100.291,-34.6736 -47.9256,0 0,4.95236 20.5394,0 0,29.7189 6.84567,0 0,-29.7189 20.5406,0 0,-4.95236 z m -260.67,0 -47.9244,0 0,4.95236 20.5394,0 0,29.7189 6.84567,0 0,-29.7189 20.5394,0 0,-4.95236 z m 48.2941,19.813 -23.2913,0 26.6728,14.8606 -10.4598,0 -26.0846,-14.8606 -4.26614,0 0,14.8606 -4.88031,0 0,-34.676 42.3094,0 c 7.25787,7.3122 7.25906,12.5031 0,19.8154 z m -2.30315,-14.8618 -35.126,0 0,9.90709 35.126,0 c 3.67323,-2.38583 3.67795,-7.52126 0,-9.90709 z m 483.484,-4.95354 0,4.95354 -16.487,0 -1.97953,1.49528 0,6.91772 1.97953,1.49409 32.5228,0 6.56457,4.95472 0,9.90709 -6.56457,4.95354 -39.372,0 0,-4.95354 38.9764,0 1.97835,-1.49409 0,-6.9189 -1.97835,-1.49409 -32.413,0 -6.56339,-4.95472 0,-9.90709 6.56339,-4.95354 16.7728,0 z m -190.624,0 0,4.95354 -16.4882,0 -1.97835,1.49528 0,6.91772 1.97835,1.49409 32.524,0 6.56339,4.95472 0,9.90709 -6.56339,4.95354 -39.372,0 0,-4.95354 38.9764,0 1.97835,-1.49409 0,-6.9189 -1.97835,-1.49409 -32.413,0 -6.56339,-4.95472 0,-9.90709 6.56339,-4.95354 16.7728,0 z"
   class="fil2"
   id="_20936536" />
 </g>
</svg>